<mxfile host="Electron" agent="Mozilla/5.0 (Windows NT 10.0; Win64; x64) AppleWebKit/537.36 (KHTML, like Gecko) draw.io/24.7.17 Chrome/128.0.6613.36 Electron/32.0.1 Safari/537.36" version="24.7.17">
  <diagram name="Страница — 1" id="AvSwX9tglvJ7psdM4ufj">
    <mxGraphModel dx="1222" dy="1198" grid="0" gridSize="10" guides="1" tooltips="1" connect="1" arrows="1" fold="1" page="0" pageScale="1" pageWidth="827" pageHeight="1169" math="0" shadow="0">
      <root>
        <mxCell id="0" />
        <mxCell id="1" parent="0" />
        <mxCell id="a4ciOlM0Xgx-LXiKj8uF-37" value="" style="rounded=0;whiteSpace=wrap;html=1;" vertex="1" parent="1">
          <mxGeometry x="680" y="-10" width="543.75" height="630" as="geometry" />
        </mxCell>
        <mxCell id="a4ciOlM0Xgx-LXiKj8uF-16" value="" style="rounded=0;whiteSpace=wrap;html=1;" vertex="1" parent="1">
          <mxGeometry x="80" y="-10" width="560" height="630" as="geometry" />
        </mxCell>
        <mxCell id="a4ciOlM0Xgx-LXiKj8uF-2" value="" style="rounded=0;whiteSpace=wrap;html=1;" vertex="1" parent="1">
          <mxGeometry x="110" y="40" width="400" height="280" as="geometry" />
        </mxCell>
        <mxCell id="a4ciOlM0Xgx-LXiKj8uF-1" value="" style="rounded=0;whiteSpace=wrap;html=1;" vertex="1" parent="1">
          <mxGeometry x="140" y="100" width="160" height="200" as="geometry" />
        </mxCell>
        <mxCell id="a4ciOlM0Xgx-LXiKj8uF-3" value="п/с настройки уровня сложности" style="rounded=0;whiteSpace=wrap;html=1;" vertex="1" parent="1">
          <mxGeometry x="160" y="140" width="120" height="60" as="geometry" />
        </mxCell>
        <mxCell id="a4ciOlM0Xgx-LXiKj8uF-4" value="п/с работы с упражнениями" style="rounded=0;whiteSpace=wrap;html=1;" vertex="1" parent="1">
          <mxGeometry x="160" y="220" width="120" height="60" as="geometry" />
        </mxCell>
        <mxCell id="a4ciOlM0Xgx-LXiKj8uF-5" value="&lt;font style=&quot;font-size: 14px;&quot;&gt;п/с &quot;Администратор&quot;&amp;nbsp;&lt;/font&gt;" style="text;html=1;align=center;verticalAlign=middle;whiteSpace=wrap;rounded=0;strokeWidth=2;" vertex="1" parent="1">
          <mxGeometry x="150" y="110" width="140" height="30" as="geometry" />
        </mxCell>
        <mxCell id="a4ciOlM0Xgx-LXiKj8uF-6" value="" style="rounded=0;whiteSpace=wrap;html=1;" vertex="1" parent="1">
          <mxGeometry x="320" y="100" width="160" height="200" as="geometry" />
        </mxCell>
        <mxCell id="a4ciOlM0Xgx-LXiKj8uF-7" value="п/с настройки параметров упражнения" style="rounded=0;whiteSpace=wrap;html=1;" vertex="1" parent="1">
          <mxGeometry x="340" y="140" width="120" height="60" as="geometry" />
        </mxCell>
        <mxCell id="a4ciOlM0Xgx-LXiKj8uF-8" value="п/с выполнения&amp;nbsp; упражнений" style="rounded=0;whiteSpace=wrap;html=1;" vertex="1" parent="1">
          <mxGeometry x="340" y="220" width="120" height="60" as="geometry" />
        </mxCell>
        <mxCell id="a4ciOlM0Xgx-LXiKj8uF-9" value="&lt;font style=&quot;font-size: 14px;&quot;&gt;п/с &quot;Обучающийся&quot;&amp;nbsp;&lt;/font&gt;" style="text;html=1;align=center;verticalAlign=middle;whiteSpace=wrap;rounded=0;strokeWidth=2;" vertex="1" parent="1">
          <mxGeometry x="330" y="110" width="140" height="30" as="geometry" />
        </mxCell>
        <mxCell id="a4ciOlM0Xgx-LXiKj8uF-10" value="&lt;font style=&quot;font-size: 16px;&quot;&gt;п/с ввода&lt;/font&gt;" style="text;html=1;align=center;verticalAlign=middle;whiteSpace=wrap;rounded=0;" vertex="1" parent="1">
          <mxGeometry x="260" y="50" width="100" height="30" as="geometry" />
        </mxCell>
        <mxCell id="a4ciOlM0Xgx-LXiKj8uF-13" value="" style="edgeStyle=orthogonalEdgeStyle;rounded=0;orthogonalLoop=1;jettySize=auto;html=1;" edge="1" parent="1" source="a4ciOlM0Xgx-LXiKj8uF-11" target="a4ciOlM0Xgx-LXiKj8uF-12">
          <mxGeometry relative="1" as="geometry" />
        </mxCell>
        <mxCell id="a4ciOlM0Xgx-LXiKj8uF-11" value="&lt;font style=&quot;font-size: 16px;&quot;&gt;п/с визуализации&lt;/font&gt;" style="rounded=0;whiteSpace=wrap;html=1;" vertex="1" parent="1">
          <mxGeometry x="110" y="350" width="400" height="60" as="geometry" />
        </mxCell>
        <mxCell id="a4ciOlM0Xgx-LXiKj8uF-12" value="&lt;font style=&quot;font-size: 16px;&quot;&gt;п/с вывода&lt;/font&gt;" style="rounded=0;whiteSpace=wrap;html=1;" vertex="1" parent="1">
          <mxGeometry x="110" y="440" width="400" height="60" as="geometry" />
        </mxCell>
        <mxCell id="a4ciOlM0Xgx-LXiKj8uF-14" value="&lt;font style=&quot;font-size: 16px;&quot;&gt;справочная п/с&lt;/font&gt;" style="rounded=0;whiteSpace=wrap;html=1;" vertex="1" parent="1">
          <mxGeometry x="110" y="530" width="400" height="60" as="geometry" />
        </mxCell>
        <mxCell id="a4ciOlM0Xgx-LXiKj8uF-15" value="&lt;font style=&quot;font-size: 16px;&quot;&gt;п/с взаимодействия с серверной частью&lt;/font&gt;" style="rounded=0;whiteSpace=wrap;html=1;rotation=-90;" vertex="1" parent="1">
          <mxGeometry x="375" y="290" width="400" height="60" as="geometry" />
        </mxCell>
        <mxCell id="a4ciOlM0Xgx-LXiKj8uF-17" value="Клиентская часть" style="text;html=1;align=center;verticalAlign=middle;whiteSpace=wrap;rounded=0;fontSize=18;" vertex="1" parent="1">
          <mxGeometry x="110" width="190" height="30" as="geometry" />
        </mxCell>
        <mxCell id="a4ciOlM0Xgx-LXiKj8uF-18" value="&lt;font style=&quot;font-size: 16px;&quot;&gt;п/с взаимодействия с серверной частью&lt;/font&gt;" style="rounded=0;whiteSpace=wrap;html=1;rotation=-90;" vertex="1" parent="1">
          <mxGeometry x="550" y="291.25" width="397.5" height="60" as="geometry" />
        </mxCell>
        <mxCell id="a4ciOlM0Xgx-LXiKj8uF-20" value="п/с генерации упражнения" style="rounded=0;whiteSpace=wrap;html=1;fontSize=16;" vertex="1" parent="1">
          <mxGeometry x="883.75" y="150" width="170" height="50" as="geometry" />
        </mxCell>
        <mxCell id="a4ciOlM0Xgx-LXiKj8uF-21" value="п/с ведения статистики" style="rounded=0;whiteSpace=wrap;html=1;fontSize=16;" vertex="1" parent="1">
          <mxGeometry x="1033.75" y="241.25" width="160" height="38.75" as="geometry" />
        </mxCell>
        <mxCell id="a4ciOlM0Xgx-LXiKj8uF-22" value="п/с аутенфикации" style="rounded=0;whiteSpace=wrap;html=1;fontSize=16;" vertex="1" parent="1">
          <mxGeometry x="843.75" y="320" width="170" height="40" as="geometry" />
        </mxCell>
        <mxCell id="a4ciOlM0Xgx-LXiKj8uF-23" value="п/с взаимодействия с БД" style="rounded=0;whiteSpace=wrap;html=1;fontSize=16;" vertex="1" parent="1">
          <mxGeometry x="1033.75" y="390" width="160" height="40" as="geometry" />
        </mxCell>
        <mxCell id="a4ciOlM0Xgx-LXiKj8uF-24" value="БД" style="shape=cylinder3;whiteSpace=wrap;html=1;boundedLbl=1;backgroundOutline=1;size=15;fontSize=16;" vertex="1" parent="1">
          <mxGeometry x="1083.75" y="450" width="60" height="80" as="geometry" />
        </mxCell>
        <mxCell id="a4ciOlM0Xgx-LXiKj8uF-26" value="" style="endArrow=none;html=1;rounded=0;entryX=0;entryY=0.5;entryDx=0;entryDy=0;exitX=0.866;exitY=1.013;exitDx=0;exitDy=0;exitPerimeter=0;" edge="1" parent="1" source="a4ciOlM0Xgx-LXiKj8uF-18" target="a4ciOlM0Xgx-LXiKj8uF-20">
          <mxGeometry width="50" height="50" relative="1" as="geometry">
            <mxPoint x="713.75" y="360" as="sourcePoint" />
            <mxPoint x="763.75" y="310" as="targetPoint" />
          </mxGeometry>
        </mxCell>
        <mxCell id="a4ciOlM0Xgx-LXiKj8uF-29" value="" style="endArrow=none;html=1;rounded=0;entryX=0;entryY=0.5;entryDx=0;entryDy=0;exitX=0.45;exitY=1;exitDx=0;exitDy=0;exitPerimeter=0;" edge="1" parent="1" source="a4ciOlM0Xgx-LXiKj8uF-18" target="a4ciOlM0Xgx-LXiKj8uF-22">
          <mxGeometry width="50" height="50" relative="1" as="geometry">
            <mxPoint x="713.75" y="360" as="sourcePoint" />
            <mxPoint x="763.75" y="310" as="targetPoint" />
          </mxGeometry>
        </mxCell>
        <mxCell id="a4ciOlM0Xgx-LXiKj8uF-31" value="" style="endArrow=none;html=1;rounded=0;entryX=1;entryY=0.5;entryDx=0;entryDy=0;" edge="1" parent="1" target="a4ciOlM0Xgx-LXiKj8uF-22">
          <mxGeometry width="50" height="50" relative="1" as="geometry">
            <mxPoint x="1113.75" y="340" as="sourcePoint" />
            <mxPoint x="763.75" y="310" as="targetPoint" />
          </mxGeometry>
        </mxCell>
        <mxCell id="a4ciOlM0Xgx-LXiKj8uF-32" value="" style="endArrow=none;html=1;rounded=0;exitX=0.5;exitY=0;exitDx=0;exitDy=0;" edge="1" parent="1" source="a4ciOlM0Xgx-LXiKj8uF-23">
          <mxGeometry width="50" height="50" relative="1" as="geometry">
            <mxPoint x="713.75" y="360" as="sourcePoint" />
            <mxPoint x="1113.75" y="340" as="targetPoint" />
          </mxGeometry>
        </mxCell>
        <mxCell id="a4ciOlM0Xgx-LXiKj8uF-34" value="" style="endArrow=none;html=1;rounded=0;exitX=0;exitY=0.5;exitDx=0;exitDy=0;entryX=0.271;entryY=1.027;entryDx=0;entryDy=0;entryPerimeter=0;" edge="1" parent="1" source="a4ciOlM0Xgx-LXiKj8uF-23" target="a4ciOlM0Xgx-LXiKj8uF-18">
          <mxGeometry width="50" height="50" relative="1" as="geometry">
            <mxPoint x="863.75" y="360" as="sourcePoint" />
            <mxPoint x="913.75" y="310" as="targetPoint" />
          </mxGeometry>
        </mxCell>
        <mxCell id="a4ciOlM0Xgx-LXiKj8uF-35" value="" style="endArrow=none;html=1;rounded=0;exitX=0.5;exitY=0;exitDx=0;exitDy=0;exitPerimeter=0;entryX=0.5;entryY=1;entryDx=0;entryDy=0;" edge="1" parent="1" source="a4ciOlM0Xgx-LXiKj8uF-24" target="a4ciOlM0Xgx-LXiKj8uF-23">
          <mxGeometry width="50" height="50" relative="1" as="geometry">
            <mxPoint x="823.75" y="340" as="sourcePoint" />
            <mxPoint x="873.75" y="290" as="targetPoint" />
          </mxGeometry>
        </mxCell>
        <mxCell id="a4ciOlM0Xgx-LXiKj8uF-36" value="" style="endArrow=none;html=1;rounded=0;exitX=0.75;exitY=0;exitDx=0;exitDy=0;entryX=0.75;entryY=1;entryDx=0;entryDy=0;" edge="1" parent="1" source="a4ciOlM0Xgx-LXiKj8uF-23" target="a4ciOlM0Xgx-LXiKj8uF-21">
          <mxGeometry width="50" height="50" relative="1" as="geometry">
            <mxPoint x="1140.75" y="380" as="sourcePoint" />
            <mxPoint x="1163.75" y="310" as="targetPoint" />
          </mxGeometry>
        </mxCell>
        <mxCell id="a4ciOlM0Xgx-LXiKj8uF-39" value="Серверная часть" style="text;html=1;align=center;verticalAlign=middle;whiteSpace=wrap;rounded=0;fontSize=18;" vertex="1" parent="1">
          <mxGeometry x="723.75" width="190" height="30" as="geometry" />
        </mxCell>
        <mxCell id="a4ciOlM0Xgx-LXiKj8uF-40" value="&lt;font style=&quot;font-size: 16px;&quot;&gt;HTTP&lt;/font&gt;" style="html=1;shadow=0;dashed=0;align=center;verticalAlign=middle;shape=mxgraph.arrows2.twoWayArrow;dy=0.6;dx=35;" vertex="1" parent="1">
          <mxGeometry x="600" y="280" width="120" height="60" as="geometry" />
        </mxCell>
      </root>
    </mxGraphModel>
  </diagram>
</mxfile>
